<svg width="269" height="50" viewBox="0 0 269 50" fill="none" xmlns="http://www.w3.org/2000/svg">
<path d="M25.0029 18.8467C21.5969 18.8467 18.8496 21.594 18.8496 25C18.8496 28.406 21.5969 31.1533 25.0029 31.1533C28.4089 31.1533 31.1562 28.406 31.1562 25C31.1562 21.594 28.4089 18.8467 25.0029 18.8467ZM25.0029 29.0004C22.8019 29.0004 21.0025 27.2064 21.0025 25C21.0025 22.7936 22.7965 20.9996 25.0029 20.9996C27.2093 20.9996 29.0034 22.7936 29.0034 25C29.0034 27.2064 27.204 29.0004 25.0029 29.0004ZM32.8431 18.595C32.8431 19.3929 32.2005 20.0302 31.4079 20.0302C30.61 20.0302 29.9727 19.3876 29.9727 18.595C29.9727 17.8024 30.6153 17.1598 31.4079 17.1598C32.2005 17.1598 32.8431 17.8024 32.8431 18.595ZM36.9186 20.0517C36.8275 18.1291 36.3884 16.4261 34.9799 15.023C33.5768 13.6199 31.8738 13.1807 29.9513 13.0843C27.9698 12.9719 22.0307 12.9719 20.0492 13.0843C18.132 13.1754 16.429 13.6145 15.0205 15.0176C13.6121 16.4207 13.1783 18.1237 13.0819 20.0463C12.9694 22.0278 12.9694 27.9669 13.0819 29.9483C13.1729 31.8709 13.6121 33.5739 15.0205 34.977C16.429 36.3801 18.1266 36.8193 20.0492 36.9157C22.0307 37.0281 27.9698 37.0281 29.9513 36.9157C31.8738 36.8246 33.5768 36.3855 34.9799 34.977C36.383 33.5739 36.8222 31.8709 36.9186 29.9483C37.031 27.9669 37.031 22.0331 36.9186 20.0517ZM34.3587 32.0744C33.941 33.1241 33.1323 33.9327 32.0773 34.3558C30.4975 34.9824 26.7488 34.8378 25.0029 34.8378C23.2571 34.8378 19.503 34.977 17.9285 34.3558C16.8788 33.9381 16.0702 33.1294 15.6471 32.0744C15.0205 30.4946 15.1651 26.7458 15.1651 25C15.1651 23.2542 15.0259 19.5001 15.6471 17.9256C16.0648 16.8759 16.8735 16.0673 17.9285 15.6442C19.5083 15.0176 23.2571 15.1622 25.0029 15.1622C26.7488 15.1622 30.5029 15.023 32.0773 15.6442C33.127 16.0619 33.9356 16.8706 34.3587 17.9256C34.9853 19.5054 34.8407 23.2542 34.8407 25C34.8407 26.7458 34.9853 30.4999 34.3587 32.0744Z" fill="#565656"/>
<rect x="0.5" y="0.5" width="49" height="49" stroke="#565656"/>
<path d="M103.584 26.5L104.251 22.1566H100.083V19.338C100.083 18.1497 100.666 16.9914 102.532 16.9914H104.427V13.2934C104.427 13.2934 102.707 13 101.064 13C97.6313 13 95.3879 15.0803 95.3879 18.8463V22.1566H91.5728V26.5H95.3879V37H100.083V26.5H103.584Z" fill="#565656"/>
<rect x="73.5" y="0.5" width="49" height="49" stroke="#565656"/>
<rect x="146.5" y="0.5" width="49" height="49" fill="#565656"/>
<path d="M182.738 18.9812C182.756 19.2437 182.756 19.5063 182.756 19.7687C182.756 27.775 176.663 37 165.525 37C162.094 37 158.906 36.0062 156.225 34.2813C156.713 34.3375 157.181 34.3563 157.688 34.3563C160.519 34.3563 163.125 33.4 165.206 31.7688C162.544 31.7125 160.313 29.9688 159.544 27.5687C159.919 27.625 160.294 27.6625 160.688 27.6625C161.231 27.6625 161.775 27.5874 162.281 27.4563C159.506 26.8937 157.425 24.4562 157.425 21.5125V21.4375C158.231 21.8875 159.169 22.1688 160.163 22.2062C158.531 21.1187 157.463 19.2625 157.463 17.1625C157.463 16.0375 157.763 15.0062 158.288 14.1062C161.269 17.7812 165.75 20.1812 170.775 20.4437C170.681 19.9937 170.625 19.525 170.625 19.0563C170.625 15.7187 173.325 13 176.681 13C178.425 13 180 13.7312 181.106 14.9125C182.475 14.65 183.787 14.1437 184.95 13.45C184.5 14.8563 183.544 16.0375 182.288 16.7875C183.506 16.6563 184.688 16.3187 185.775 15.85C184.95 17.05 183.919 18.1187 182.738 18.9812Z" fill="white"/>
<rect x="146.5" y="0.5" width="49" height="49" stroke="#565656"/>
<path d="M237.372 37H232.396V20.9764H237.372V37ZM234.882 18.7907C233.291 18.7907 232 17.4728 232 15.8817C232 15.1174 232.304 14.3844 232.844 13.844C233.384 13.3036 234.117 13 234.882 13C235.646 13 236.379 13.3036 236.919 13.844C237.46 14.3844 237.763 15.1174 237.763 15.8817C237.763 17.4728 236.472 18.7907 234.882 18.7907ZM255.995 37H251.03V29.1998C251.03 27.3409 250.993 24.9569 248.443 24.9569C245.856 24.9569 245.46 26.9766 245.46 29.0659V37H240.489V20.9764H245.261V23.1622H245.331C245.995 21.9032 247.618 20.5746 250.039 20.5746C255.075 20.5746 256.001 23.8908 256.001 28.198V37H255.995Z" fill="#565656"/>
<rect x="219.5" y="0.5" width="49.0007" height="49" stroke="#565656"/>
</svg>
